# xmcd CD database file
#
# Track frame offsets:
#	150
#	12975
#	25557
#	38247
#	48262
#	60432
#	71555
#	82010
#	92612
#	104892
#	116260
#	128245
#	138665
#	151955
#	163032
#	175577
#	185692
#	197425
#	210060
#	221947
#
# Disc length: 3126 seconds
#
# Revision: 0
# Processed by: cddbd v1.4PL0 Copyright (c) Steve Scherf et al.
# Submitted via: CDex 1.50
#
DISCID=0f0c3414
DTITLE=Hank Snow - The Golden Rocket
DYEAR=1900
DGENRE=Country
TTITLE0=I'm Moving On
TTITLE1=Golden Rocket
TTITLE2=Rhumba Boogie
TTITLE3=Down The Trail Of Achin' Hearts
TTITLE4=Bluebird Island
TTITLE5=Music Makin' Mama From Memphis
TTITLE6=The Gold Rush Is Over
TTITLE7=Lady's Man
TTITLE8=I Went To Your Wedding
TTITLE9=A Fool Such As I
TTITLE10=The Gal Who Invented Kissin'
TTITLE11=Spanish Fireball
TTITLE12=I Don't Hurt Anymore
TTITLE13=Let Me Go Lover
TTITLE14=Yellow Roses
TTITLE15=Would You Mind
TTITLE16=The Last Ride
TTITLE17=I've Been Everywhere
TTITLE18=Ninety Miles An Hour
TTITLE19=Hello Love
EXTD=
EXTT0=
EXTT1=
EXTT2=
EXTT3=
EXTT4=
EXTT5=
EXTT6=
EXTT7=
EXTT8=
EXTT9=
EXTT10=
EXTT11=
EXTT12=
EXTT13=
EXTT14=
EXTT15=
EXTT16=
EXTT17=
EXTT18=
EXTT19=
PLAYORDER=
